<?xml version="1.0" standalone="no"?>
<!DOCTYPE svg PUBLIC "-//W3C//DTD SVG 20010904//EN"
 "http://www.w3.org/TR/2001/REC-SVG-20010904/DTD/svg10.dtd">
<svg version="1.0" xmlns="http://www.w3.org/2000/svg"
 width="700.000000pt" height="700.000000pt" viewBox="0 0 700.000000 700.000000"
 preserveAspectRatio="xMidYMid meet">
<metadata>
Created by potrace 1.14, written by Peter Selinger 2001-2017
</metadata>
<g transform="translate(0.000000,700.000000) scale(0.100000,-0.100000)"
fill="#000000" stroke="none">
<path d="M2000 6783 c-14 -1 -158 -4 -320 -7 -313 -4 -349 -9 -515 -62 -234
-75 -465 -230 -631 -424 -133 -155 -260 -423 -289 -610 -3 -19 -10 -60 -15
-90 -5 -33 -8 -885 -7 -2125 l2 -2070 23 -94 c44 -186 107 -333 209 -484 61
-91 194 -237 268 -296 97 -76 264 -173 357 -206 151 -55 248 -78 373 -90 65
-6 4038 -6 4090 0 175 20 295 53 445 122 425 196 720 600 780 1071 11 82 15
4050 5 4132 -22 174 -59 305 -125 447 -154 329 -444 589 -796 712 -113 39
-244 62 -389 67 -133 5 -3412 11 -3465 7z"/>
</g>
</svg>
